<svg xmlns="http://www.w3.org/2000/svg" version="1.1" xmlns:xlink="http://www.w3.org/1999/xlink" xmlns:svgjs="http://svgjs.dev/svgjs" viewBox="0 0 800 800"><defs><linearGradient x1="50%" y1="0%" x2="50%" y2="100%" id="ffflurry-grad" gradientTransform="rotate(270)"><stop stop-color="hsl(238, 82%, 13%)" stop-opacity="1" offset="0%"></stop><stop stop-color="hsl(305, 77%, 50%)" stop-opacity="1" offset="45%"></stop><stop stop-color="hsl(305, 77%, 80%)" stop-opacity="1" offset="100%"></stop></linearGradient></defs><rect width="100%" height="100%" fill="hsl(238, 82%, 13%)"></rect><g fill="url(#ffflurry-grad)"><rect width="259" height="3" x="629.5" y="323.5" rx="1.5" transform="rotate(45, 759, 325)" opacity="0.71"></rect><rect width="438" height="3" x="131" y="241.5" rx="1.5" transform="rotate(45, 350, 243)" opacity="0.44"></rect><rect width="219" height="3" x="147.5" y="441.5" rx="1.5" transform="rotate(45, 257, 443)" opacity="0.07"></rect><rect width="389" height="3" x="350.5" y="636.5" rx="1.5" transform="rotate(45, 545, 638)" opacity="0.97"></rect><rect width="200" height="3" x="518" y="107.5" rx="1.5" transform="rotate(45, 618, 109)" opacity="0.96"></rect><rect width="74" height="3" x="433" y="39.5" rx="1.5" transform="rotate(45, 470, 41)" opacity="0.93"></rect><rect width="160" height="3" x="537" y="25.5" rx="1.5" transform="rotate(45, 617, 27)" opacity="0.80"></rect><rect width="438" height="3" x="15" y="620.5" rx="1.5" transform="rotate(45, 234, 622)" opacity="0.93"></rect><rect width="159" height="3" x="688.5" y="174.5" rx="1.5" transform="rotate(45, 768, 176)" opacity="0.84"></rect><rect width="228" height="3" x="381" y="759.5" rx="1.5" transform="rotate(45, 495, 761)" opacity="0.97"></rect><rect width="240" height="3" x="290" y="82.5" rx="1.5" transform="rotate(45, 410, 84)" opacity="0.07"></rect><rect width="82" height="3" x="455" y="229.5" rx="1.5" transform="rotate(45, 496, 231)" opacity="0.76"></rect><rect width="562" height="3" x="-6" y="741.5" rx="1.5" transform="rotate(45, 275, 743)" opacity="0.32"></rect><rect width="41" height="3" x="513.5" y="177.5" rx="1.5" transform="rotate(45, 534, 179)" opacity="0.12"></rect><rect width="314" height="3" x="20" y="44.5" rx="1.5" transform="rotate(45, 177, 46)" opacity="0.84"></rect><rect width="250" height="3" x="296" y="767.5" rx="1.5" transform="rotate(45, 421, 769)" opacity="0.62"></rect><rect width="502" height="3" x="415" y="521.5" rx="1.5" transform="rotate(45, 666, 523)" opacity="0.49"></rect><rect width="346" height="3" x="-132" y="389.5" rx="1.5" transform="rotate(45, 41, 391)" opacity="0.29"></rect><rect width="356" height="3" x="540" y="745.5" rx="1.5" transform="rotate(45, 718, 747)" opacity="0.60"></rect><rect width="495" height="3" x="354.5" y="210.5" rx="1.5" transform="rotate(45, 602, 212)" opacity="0.33"></rect><rect width="335" height="3" x="80.5" y="182.5" rx="1.5" transform="rotate(45, 248, 184)" opacity="0.66"></rect><rect width="343" height="3" x="334.5" y="316.5" rx="1.5" transform="rotate(45, 506, 318)" opacity="0.17"></rect><rect width="455" height="3" x="-191.5" y="572.5" rx="1.5" transform="rotate(45, 36, 574)" opacity="0.97"></rect><rect width="105" height="3" x="697.5" y="22.5" rx="1.5" transform="rotate(45, 750, 24)" opacity="0.51"></rect><rect width="162" height="3" x="466" y="123.5" rx="1.5" transform="rotate(45, 547, 125)" opacity="0.24"></rect><rect width="477" height="3" x="179.5" y="344.5" rx="1.5" transform="rotate(45, 418, 346)" opacity="0.46"></rect><rect width="639" height="3" x="399.5" y="244.5" rx="1.5" transform="rotate(45, 719, 246)" opacity="0.76"></rect><rect width="377" height="3" x="122.5" y="306.5" rx="1.5" transform="rotate(45, 311, 308)" opacity="0.99"></rect><rect width="288" height="3" x="-119" y="752.5" rx="1.5" transform="rotate(45, 25, 754)" opacity="0.17"></rect><rect width="356" height="3" x="-125" y="660.5" rx="1.5" transform="rotate(45, 53, 662)" opacity="0.94"></rect><rect width="234" height="3" x="27" y="402.5" rx="1.5" transform="rotate(45, 144, 404)" opacity="0.72"></rect><rect width="294" height="3" x="612" y="87.5" rx="1.5" transform="rotate(45, 759, 89)" opacity="0.25"></rect><rect width="619" height="3" x="346.5" y="639.5" rx="1.5" transform="rotate(45, 656, 641)" opacity="0.35"></rect><rect width="641" height="3" x="-109.5" y="514.5" rx="1.5" transform="rotate(45, 211, 516)" opacity="0.69"></rect><rect width="329" height="3" x="157.5" y="32.5" rx="1.5" transform="rotate(45, 322, 34)" opacity="0.82"></rect><rect width="427" height="3" x="375.5" y="744.5" rx="1.5" transform="rotate(45, 589, 746)" opacity="0.50"></rect><rect width="101" height="3" x="128.5" y="266.5" rx="1.5" transform="rotate(45, 179, 268)" opacity="0.52"></rect><rect width="370" height="3" x="173" y="643.5" rx="1.5" transform="rotate(45, 358, 645)" opacity="0.66"></rect><rect width="101" height="3" x="654.5" y="425.5" rx="1.5" transform="rotate(45, 705, 427)" opacity="0.39"></rect><rect width="474" height="3" x="109" y="761.5" rx="1.5" transform="rotate(45, 346, 763)" opacity="0.59"></rect><rect width="242" height="3" x="479" y="283.5" rx="1.5" transform="rotate(45, 600, 285)" opacity="0.25"></rect><rect width="279" height="3" x="351.5" y="684.5" rx="1.5" transform="rotate(45, 491, 686)" opacity="0.58"></rect><rect width="128" height="3" x="359" y="649.5" rx="1.5" transform="rotate(45, 423, 651)" opacity="0.86"></rect><rect width="652" height="3" x="-245" y="497.5" rx="1.5" transform="rotate(45, 81, 499)" opacity="0.18"></rect><rect width="452" height="3" x="-174" y="55.5" rx="1.5" transform="rotate(45, 52, 57)" opacity="0.69"></rect><rect width="95" height="3" x="708.5" y="510.5" rx="1.5" transform="rotate(45, 756, 512)" opacity="0.64"></rect><rect width="302" height="3" x="414" y="576.5" rx="1.5" transform="rotate(45, 565, 578)" opacity="0.85"></rect><rect width="71" height="3" x="586.5" y="442.5" rx="1.5" transform="rotate(45, 622, 444)" opacity="0.96"></rect><rect width="228" height="3" x="212" y="539.5" rx="1.5" transform="rotate(45, 326, 541)" opacity="0.56"></rect><rect width="487" height="3" x="300.5" y="46.5" rx="1.5" transform="rotate(45, 544, 48)" opacity="0.23"></rect><rect width="517" height="3" x="290.5" y="408.5" rx="1.5" transform="rotate(45, 549, 410)" opacity="0.79"></rect><rect width="79" height="3" x="-8.5" y="163.5" rx="1.5" transform="rotate(45, 31, 165)" opacity="0.44"></rect><rect width="401" height="3" x="-60.5" y="608.5" rx="1.5" transform="rotate(45, 140, 610)" opacity="0.23"></rect><rect width="524" height="3" x="49" y="119.5" rx="1.5" transform="rotate(45, 311, 121)" opacity="0.21"></rect><rect width="565" height="3" x="221.5" y="518.5" rx="1.5" transform="rotate(45, 504, 520)" opacity="0.76"></rect><rect width="92" height="3" x="373" y="228.5" rx="1.5" transform="rotate(45, 419, 230)" opacity="0.91"></rect><rect width="249" height="3" x="310.5" y="580.5" rx="1.5" transform="rotate(45, 435, 582)" opacity="0.20"></rect><rect width="338" height="3" x="222" y="709.5" rx="1.5" transform="rotate(45, 391, 711)" opacity="0.99"></rect><rect width="104" height="3" x="44" y="746.5" rx="1.5" transform="rotate(45, 96, 748)" opacity="0.62"></rect><rect width="430" height="3" x="-148" y="289.5" rx="1.5" transform="rotate(45, 67, 291)" opacity="0.29"></rect><rect width="163" height="3" x="149.5" y="339.5" rx="1.5" transform="rotate(45, 231, 341)" opacity="0.31"></rect><rect width="240" height="3" x="488" y="366.5" rx="1.5" transform="rotate(45, 608, 368)" opacity="0.40"></rect><rect width="260" height="3" x="20" y="138.5" rx="1.5" transform="rotate(45, 150, 140)" opacity="0.10"></rect><rect width="288" height="3" x="628" y="410.5" rx="1.5" transform="rotate(45, 772, 412)" opacity="0.47"></rect><rect width="335" height="3" x="225.5" y="430.5" rx="1.5" transform="rotate(45, 393, 432)" opacity="0.85"></rect><rect width="193" height="3" x="390.5" y="432.5" rx="1.5" transform="rotate(45, 487, 434)" opacity="0.20"></rect><rect width="292" height="3" x="158" y="637.5" rx="1.5" transform="rotate(45, 304, 639)" opacity="0.86"></rect><rect width="508" height="3" x="430" y="157.5" rx="1.5" transform="rotate(45, 684, 159)" opacity="0.83"></rect><rect width="363" height="3" x="258.5" y="150.5" rx="1.5" transform="rotate(45, 440, 152)" opacity="0.19"></rect><rect width="535" height="3" x="487.5" y="627.5" rx="1.5" transform="rotate(45, 755, 629)" opacity="0.64"></rect><rect width="222" height="3" x="212" y="402.5" rx="1.5" transform="rotate(45, 323, 404)" opacity="0.73"></rect><rect width="635" height="3" x="-132.5" y="730.5" rx="1.5" transform="rotate(45, 185, 732)" opacity="0.83"></rect><rect width="538" height="3" x="143" y="500.5" rx="1.5" transform="rotate(45, 412, 502)" opacity="0.95"></rect><rect width="181" height="3" x="590.5" y="59.5" rx="1.5" transform="rotate(45, 681, 61)" opacity="0.22"></rect><rect width="101" height="3" x="37.5" y="205.5" rx="1.5" transform="rotate(45, 88, 207)" opacity="0.92"></rect><rect width="126" height="3" x="611" y="329.5" rx="1.5" transform="rotate(45, 674, 331)" opacity="0.15"></rect><rect width="156" height="3" x="515" y="523.5" rx="1.5" transform="rotate(45, 593, 525)" opacity="0.21"></rect></g></svg>