<svg xmlns="http://www.w3.org/2000/svg" version="1.1" xmlns:xlink="http://www.w3.org/1999/xlink" xmlns:svgjs="http://svgjs.dev/svgjs" viewBox="0 0 800 800"><defs><linearGradient x1="50%" y1="0%" x2="50%" y2="100%" id="ssscribble-grad"><stop stop-color="hsl(305, 77%, 50%)" stop-opacity="1" offset="0%"></stop><stop stop-color="hsl(305, 77%, 80%)" stop-opacity="1" offset="100%"></stop></linearGradient></defs><g fill="none" stroke-width="1.5" stroke="url(#ssscribble-grad)" stroke-linecap="round"><path d="M950.43 443.73C763.81 484.61 1034 433.87 916.95 439.12 776.04 480.18 640.83 556.56 541.69 668.48 488.31 795.05 481.82 919.67 505.16 1008.39 552.52 1033.98 599.11 985.54 632.41 874.08 662.2 749.45 672.35 656.48 664.89 644.52 653.92 729.45 630.8 879.34 597.94 1027.22 565.08 1101.15 524.03 1063.75 473.03 939.23 418.52 782.86 348.59 660.05 261.85 611.8 171.6 647.7 70.9 740.6 -27.1 846.77 -101.08 937.55 -141.77 976.51 -131.46 959.39 -75.39 894.33 20.85 797.69 127.54 692.2 194.84 583.15 196.43 489.89 113.67 416.4 -30.65 354.41 -186.5 307.93 -284.77 270.8 -279.1 237.94 -167.05 206.6 -1.56 173.74 124.3 140.88 147.86 108.05 66.91 78.94 -141.91 47.45 -171.9 81.94 27.79 159.91 164.22 214.75 254.33 264.22 288.51 286.23 269.83 260.29 219.17 182.38 161.09 57.39 60.8 -166.67 125.84 133.78 175.76 75.26 208.62 -72.6 238.67 -215.84 269.37 -288.11 304.77 -263.49 349.52 -151.83 410.72 -3.11 484.93 132.43 580.57 210.35 693.36 219 802.08 164.5 899.92 78.85 961.67 -4.65 970.56 -73.51 919.41 -102.72 817.2 -93.13 707.74 -52.51 625.15 11.1 614.76 82.93 694.87 163.74 842.54 238.2 999.56 300.34 1093.2 362.55 1076.3 410.86 950.43 443.73Q950.43 443.73 950.43 443.73" opacity="0.42"></path><path d="M916.43 282.26C702.85 321.29 722.78 346.22 902.81 353.28 991.31 371.56 1009.25 404.83 957.61 461.77 852.68 540.59 725.39 643.72 606.52 761.63 509.17 870.39 449.07 955.81 422.39 992.95 424.7 972.2 442.59 893.6 462.64 777.67 489.73 671.25 506.2 607.86 507.78 620.84 509.02 714.15 494.67 856.91 464.16 993.22 433.65 1065.39 388.41 1041.35 329.62 937.02 270.5 793.3 198.52 663.23 118.55 586.93 45.62 581.44 -22.51 637.37 -71.84 725.46 -92.2 824.04 -75.9 896.24 -18.55 927.24 60.32 918.3 151.44 870.12 224.59 798.16 244.46 708.37 199.15 617.8 88.28 536.35 -56.05 456.99 -189.53 391.59 -258.39 339.76 -234.26 290.38 -121.83 250.86 32.43 220.34 152.32 189.83 186.06 169.77 127.11 161.6 2.1 155.88 -127.6 165.76 -209.82 192.24 -221.08 220.81 -155.48 261.13 -40.66 303.9 94.83 328.84 213.6 333.22 295.01 302.17 334.29 231.19 333.88 122.81 309.42 -7.53 264.78 -127.39 221.69 -210.7 190.63 -227.59 161.97 -173.67 150.86 -60.97 156.1 70.96 164.11 163.53 184.23 181.4 214.74 109.26 245.26 -27.02 284.72 -163.62 334.26 -245.17 386.56 -246.39 453.18 -165.65 534.72 -36.87 618.66 101.42 712 207.4 803.67 259.93 875.16 254.57 919.37 205.35 920.09 136.58 878.67 58.67 796.08 -0.65 692.35 -32.45 609.3 -42.37 571.06 -25.4 604.69 9.19 709.29 56.66 856.36 108.85 993.15 157.76 1063.87 209.18 1036.32 251.75 916.43 282.26Q916.43 282.26 916.43 282.26" opacity="0.82"></path><path d="M882.43 182.24C739.6 210.4 623.03 234.34 572.85 256.49 602.86 281.79 693.5 311.32 806.2 350.66 909.83 400.45 965.8 467 963.15 551.88 906.89 644.44 811.76 745.59 702.2 841.65 590.26 913.38 496.99 950.63 428.78 939.39 382.51 884.21 357.88 791.03 346.04 683.71 345.85 601.75 346.25 567.74 340.45 601.85 336.82 700.11 322.1 834.44 293.94 959.22 265.77 1029.04 225.48 1016.89 176 932.49 128.68 805.04 77.04 675.54 28.41 580.16 -8.54 538.6 -30.3 554.19 -27.44 611.07 -2.64 695.76 50.18 777.58 125.2 837.77 197.84 874.24 259.58 875.91 286.52 849.13 259.84 800.08 178.6 737.54 54.33 672.22 -79.01 601.21 -185.68 536.96 -226.56 483.65 -187.25 430.32 -76.39 388.88 66.43 360.71 179.79 332.54 221.76 318.98 183.43 319.18 80.37 319.37 -41.79 332.38 -139.06 354.57 -187.42 371.08 -168.97 387.25 -95.48 392.9 15.48 376.27 135.48 334.17 241.08 260.79 324.21 163.69 374.11 48.48 395.64 -65.53 392.54 -151.75 376.65 -192.61 359.22 -171.71 335.31 -96.99 320.65 16.47 319.25 133.05 317.83 206.6 330.77 213.06 358.94 143.26 387.11 18.49 429.17 -110.13 483.7 -197.54 538.22 -220.79 604.13 -170.77 676.84 -68.16 743.09 59.79 805.36 178.24 851.87 262.75 873.76 303.32 864.3 299.47 818.08 264.66 749.4 205.51 662.79 144.8 581.16 95.65 536.99 54.18 543.8 34.02 612.81 33.04 730.72 42.5 868.93 64.22 982.85 92.04 1032.05 123.01 995.79 154.07 882.43 182.24Q882.43 182.24 882.43 182.24" opacity="0.80"></path><path d="M848.43 195.85C717.24 221.67 604.54 252.85 543.56 290.33 549.09 329.97 612.12 379.59 706.86 440.91 811.14 506.63 890.24 584.26 927.38 669.74 920.84 750.08 871.32 824.69 793.9 880.79 697.57 907.95 600.56 899.75 514.25 851.97 436.71 778.06 376.97 685.67 332.81 597.31 298.45 543.12 272.79 536.38 250.56 587.25 231.22 687.14 209.77 811.91 183.95 925.22 158.13 992.12 129.16 990.29 99.82 925.04 73.35 816.37 52.04 694.39 41.65 589.48 41.06 520.54 58.29 498.47 96.03 518.1 142.56 573.09 202.5 642.34 264.98 708.45 308.56 768.66 327.47 806.19 307.13 819.65 243.1 815.26 140.85 792 17.64 757.48 -96.01 714.01 -173.74 668.54 -189.23 626.81 -138.22 583.3 -30.75 547.39 100.43 521.57 206.72 495.74 254.94 481.23 235.32 476.05 155.51 469.09 47.6 467.59 -53.65 466.31 -127.32 456.1 -149.88 436.85 -121.43 401.45 -50.5 348.2 46.5 273.61 149.43 179.55 250.33 79.61 332.83 -20.24 393.1 -102.13 434.65 -148.65 457.97 -149.75 470.44 -99.75 472.96 -13.77 474.73 93.5 481.55 192.21 486.36 247.51 500.59 244.13 526.41 177.25 552.23 63.95 588.42 -55.58 632.3 -145.52 674.17 -186.44 719.37 -165.03 761.6 -91.91 793.87 15.36 813.08 130.91 811.32 231.71 790.84 306.38 745.41 345.2 678.35 351.88 609.26 329.62 542.86 292.08 498.82 251.53 497.25 205.84 542.97 170.73 635.57 149.75 755.75 133.18 878.35 130.53 968.13 139.58 997.71 150.8 954.72 170.03 848.43 195.85Q848.43 195.85 848.43 195.85" opacity="0.19"></path><path d="M814.38 316.01C694.99 339.48 587.87 373.41 519.65 417.02 504.3 461.14 539.92 515.37 610.93 577.85 703.43 638.74 789.55 703.47 851.7 765.53 885.55 815.28 882.26 850.41 847.89 862.18 788.42 849.37 714.46 807.98 637.3 740.67 556.53 664.39 483.98 585.71 422.92 523.03 366.03 496.94 320.06 513.75 283.45 576.63 248.79 675.04 220.12 789.29 196.65 891.23 173.18 954.64 156.01 961.47 146.4 914.08 138.76 825.59 142.02 716.78 158.23 611.57 178.62 525.91 212.51 473.87 257.11 457.45 298.09 475.3 338.35 516.26 367.06 567.37 370.67 626.57 346.12 677.27 287.83 713.53 201.25 741.13 94.07 751.73 -15.62 748.21 -103.84 737.16 -152.82 717.61 -146.53 693.98 -87.36 668.17 14.99 642.46 134.38 618.98 233.11 595.51 285.6 575.39 282.35 556.94 225.72 536.3 136.94 513.15 41.59 483.52 -44.27 446.37 -96.62 397.11 -108.55 333.34 -82.71 260.9 -24.05 176.5 53.69 86.54 144.25 4.66 232.57 -64.11 310.32 -106.4 380.38 -114.43 435.23 -83.44 476.72 -14.99 510.26 73.02 536.02 168.46 558.19 247.89 577.95 286.22 598.67 274.64 622.14 211.23 645.61 109.28 670.73 -0.2 695.23 -89.55 717.33 -143.37 734.27 -146.82 741.42 -103.52 740.6 -23.64 724.41 76.08 690.54 176.8 648.97 268.55 594.34 337.77 534.55 381.34 487.55 400.34 456.71 398.91 455.31 385.33 491.67 359.45 565.05 333.38 668.12 313.16 780.67 291.36 882.83 279.82 948.52 279.97 960.85 280.62 913.14 292.53 814.43 316Q814.38 316.01 814.38 316.01" opacity="0.34"></path><path d="M780.92 479.88C673.48 501.01 573.35 531.43 501.18 569.45 469.02 606.62 479.21 649.45 523.77 694.37 595.32 734.34 673.9 770.62 744.3 797.34 802.44 811.18 835.03 808.1 841.42 784.23 825.71 745.26 789.94 688.26 742.03 619.36 683.49 554.72 623.18 498.63 566.76 464.27 508.87 463.92 458.68 499.31 417.97 569.36 377.63 663.45 346.49 766.41 325.37 857.12 304.24 916.49 294.13 930.25 294.63 898.99 295.5 830.93 307.26 739.35 328.55 641.9 348.36 550.68 373.88 479.59 399.86 434.49 415.21 416.54 420.65 422.79 408.67 445.68 374.59 483.9 316.96 525.16 236.82 562.36 144.43 600.04 46.9 627.17 -40.12 642.51 -100.17 654.37 -122.39 655.61 -98.38 647.9 -34.36 638.72 61.48 623.12 168.92 601.99 259.42 580.87 313.94 555.22 324.04 524.57 289.05 492.44 221.94 452.77 140.29 404.31 54.84 352.36 -13.25 290.45 -54.28 220.2 -68.17 150.45 -51.4 78.86 -10.89 12.95 48.71 -37.62 118 -68.93 188.26 -72.99 261.05 -49.89 326.45 2.24 381.9 77.96 434.23 159.93 477.04 239.49 511.3 299.41 544.07 322.53 570.82 304.5 591.94 245.15 613.07 154.46 627.57 55.77 634.64 -30.17 640.22 -92.08 635.84 -115.46 620.12 -99.63 601.28 -49.8 570.66 25.23 530.44 111.87 492.74 202.76 453.77 284.82 421.85 351.48 409.03 403.04 417.3 436.45 453.19 455.17 516.22 461 603.27 459.52 704.2 456.16 840.9 445.64 896.54 453.34 780.92 479.88Q780.92 479.88 780.92 479.88" opacity="0.19"></path><path d="M746.37 602.25C650.93 621.02 559.35 643.45 486.97 667.96 443.26 691.15 432.46 713.83 451.57 732.86 497.59 746.82 557.89 752.65 621.18 746.95 684.94 732.48 735.79 704 769.53 661.64 789.5 614.34 791.24 559.55 778.34 504.04 754.32 460.45 722.07 430.91 686.61 423.62 646.74 444.43 608.65 492.71 575.54 565.21 541.62 652.53 514.47 743.64 495.69 823.26 476.92 878.02 467.39 896.96 465.91 879.69 463.6 831.22 467.53 759.16 474.86 675.68 477.77 589.1 479.11 511.07 474.19 448.61 458.14 403.51 429.44 378.18 384.86 369.77 326.51 377.19 253.4 394.04 170.09 414.58 87.24 441.3 10.1 464.86 -49.67 481.97 -82.54 499.61 -82.43 508.75 -45.97 508.57 19.16 508.05 106.93 498.57 202.37 479.79 284.48 461.01 339.54 433.82 360.5 398.93 345.19 363.7 300.7 320.4 238.05 270.22 163.42 220.57 93.3 166.08 37.3 110.42 -3.99 60.94 -22.36 17.13 -19.33 -14.89 1.33 -31.09 37.06 -28.02 81.44 -2.48 134.01 40.42 187.42 101.61 237.23 174.43 288.43 244.15 333.04 305.52 369.39 346.74 405.58 356.76 433.51 334.02 452.29 279.26 471.07 199.64 479.81 112.33 479.04 32.25 472.88 -51.78 420.5 -33.38 385.62 52.94 370.17 128 361.39 205.06 365.33 276.96 386.9 343.94 427.53 399.38 488.38 442.78 563.92 477.42 650.87 502.53 739.27 521.11 843.28 540.35 854.13 576.34 746.42 602.24Q746.37 602.25 746.37 602.25" opacity="0.15"></path><path d="M712.42 618.89C546.92 651.76 426.58 672.11 396.84 669.93 457.04 655.68 558.08 604.17 645.94 520.43 715.56 446.99 735.4 392.7 719.19 401.51 686.11 491.14 645.09 641.38 612.22 789.25 579.36 863.15 557.77 824.44 533.9 707.34 493.17 557.56 422.05 430.48 309.36 353.13 110.48 323.23 17.41 349.55 236.42 315.8 362.29 282.94 390.09 222.1 327.29 146.65 205.2 82.15 95.83 28.57 38.59 16.55 26.7 50.83 64.27 143.05 120.73 268.74 191.09 361.76 250.42 387.15 283.28 313.25 316.14 165.38 319.42 28.46 306.01 -37.07 306.5 -21.8 320.21 67.33 375.17 183.85 475.48 310.66 619.7 413.45 765.88 484.65 852.78 543.77 838.29 586.03 712.42 618.89Q712.42 618.89 712.42 618.89" opacity="0.41"></path><path d="M678.38 521.35C535.56 549.52 418.23 551.67 362.1 527.95 373.7 501.79 431.43 451.45 499.79 392.04 575.86 356.81 624.75 350.85 641.69 397.31 649.73 496.2 636.36 630.46 608.19 755.23 580.02 825.05 539.74 811.21 482.88 731.79 417.13 612.83 324.27 490.83 211.29 393.98 106.01 321 18.41 278.47 -13.83 253.6 21.64 240.05 127.56 223.91 270.38 195.74 383.76 167.58 428.68 130.05 403.41 94.79 320.74 70.85 225.67 69.42 152.79 105.47 97.77 165.4 82.26 257.52 94.87 355.84 119.85 414.62 152.32 417.06 180.49 347.26 208.66 222.49 229.85 99.63 253.68 21.38 289.87 -4.43 349.34 31.38 441.27 103.53 551.06 199.86 676.01 294.16 779.33 369.13 825.27 441.67 791.78 493.18 678.43 521.34Q678.38 521.35 678.38 521.35" opacity="0.81"></path><path d="M644.38 360.46C525 383.93 417.66 383.42 347.63 364.27 321.46 348.67 333.99 323.78 366.55 304.25 417.69 308.63 461.36 340.7 485.33 408.79 508.57 505.31 509.38 619.29 485.91 721.23 462.44 784.64 416.9 789.53 352.99 744.39 288.34 663.14 208.04 565.82 126.13 474.93 62.81 389.05 25.38 322.75 34.35 276.04 87.18 235.96 185 205.79 304.38 182.32 430.27 151.57 389.64 164.57 296.95 234.51 233.77 294.64 193.52 367.05 178.71 431.1 169.8 459.04 178.95 444.66 202.42 381.26 225.88 279.32 261.45 174.84 311.03 95.52 366.52 44.63 443.39 37.45 537.34 63.82 629.22 114.13 717.28 175.64 775.58 231.92 787.93 291.75 743.13 336.98 644.43 360.45Q644.38 360.46 644.38 360.46" opacity="0.44"></path><path d="M610.63 220.14C515.2 238.92 423.69 245.98 352.08 246.01 303.89 250.66 281.47 257.19 277.99 274.07 291.46 306.74 308.75 359.48 319.45 432.35 333.42 516.72 333.38 607.55 314.6 687.18 295.82 741.96 260.08 758.91 213.58 741.49 170.33 697.29 123.74 634.58 85.65 567.91 64.52 496.13 67.02 432.51 101.46 383.26 159.31 335.56 243.2 301.23 338.63 282.45 420.67 263.67 476.66 262.23 501.56 277.38 495.79 294.09 469.43 328.41 435.9 375.58 392.11 417.64 356.83 460.43 337.65 490.87 318.71 494.53 317.54 469.96 336.32 415.18 355.1 335.55 392.05 252.33 443.53 181.72 495.25 122.62 559.84 89.8 628.24 81.74 686.38 89.47 732.65 112.25 752.19 140.13 741.05 172.64 692.67 201.37 610.63 220.14Q610.63 220.14 610.63 220.14" opacity="0.81"></path><path d="M576.38 173.77C433.56 201.93 314.79 238.96 253.07 303.27 229.35 394.4 220.29 528.46 192.13 653.23 163.96 723.05 122.01 705.69 108.82 641.83 133.62 551.01 229.56 472.16 372.38 444 485.77 415.83 536.38 443.68 536.74 497.58 500.89 524.52 478.57 519.05 506.74 449.23 534.9 324.46 608.22 213.23 680.99 159.02 717.54 131.63 689.77 145.6 576.38 173.77Q576.38 173.77 576.38 173.77" opacity="0.94"></path><path d="M542.43 245.4C355.29 282.96 225.05 448.22 187.5 619.22 149.94 694.91 219.29 620.08 406.43 582.52 542.52 544.97 578.7 558.91 616.26 483.22 653.81 312.22 678.52 207.85 542.43 245.4Q542.43 245.4 542.43 245.4" opacity="0.84"></path></g></svg>